HIERARCHY
ROOT Hips
{
	OFFSET 0.000000 0.000000 0.000000
	CHANNELS 6 Xposition Yposition Zposition Zrotation Yrotation Xrotation
	JOINT LHipJoint
	{
		OFFSET 0.000000 0.000000 0.000000
		CHANNELS 3 Zrotation Yrotation Xrotation
		JOINT LeftUpLeg
		{
			OFFSET 1.363060 -1.794630 0.839290
			CHANNELS 3 Zrotation Yrotation Xrotation
			JOINT LeftLeg
			{
				OFFSET 2.448110 -6.726130 0.000000
				CHANNELS 3 Zrotation Yrotation Xrotation
				JOINT LeftFoot
				{
					OFFSET 2.562200 -7.039590 0.000000
					CHANNELS 3 Zrotation Yrotation Xrotation
					JOINT LeftToeBase
					{
						OFFSET 0.157640 -0.433110 2.322550
						CHANNELS 3 Zrotation Yrotation Xrotation
						End Site
						{
							OFFSET 0.000000 0.000000 0.000000
						}
					}
				}
			}
		}
	}
	JOINT RHipJoint
	{
		OFFSET 0.000000 0.000000 0.000000
		CHANNELS 3 Zrotation Yrotation Xrotation
		JOINT RightUpLeg
		{
			OFFSET -1.305520 -1.794630 0.839290
			CHANNELS 3 Zrotation Yrotation Xrotation
			JOINT RightLeg
			{
				OFFSET -2.542530 -6.985550 0.000000
				CHANNELS 3 Zrotation Yrotation Xrotation
				JOINT RightFoot
				{
					OFFSET -2.568260 -7.056230 0.000000
					CHANNELS 3 Zrotation Yrotation Xrotation
					JOINT RightToeBase
					{
						OFFSET -0.164730 -0.452590 2.363150
						CHANNELS 3 Zrotation Yrotation Xrotation
						End Site
						{
							OFFSET 0.000000 0.000000 0.000000
						}
					}
				}
			}
		}
	}
	JOINT LowerBack
	{
		OFFSET 0.000000 0.000000 0.000000
		CHANNELS 3 Zrotation Yrotation Xrotation
		JOINT Spine
		{
			OFFSET 0.028270 2.035590 -0.193380
			CHANNELS 3 Zrotation Yrotation Xrotation
			JOINT Spine1
			{
				OFFSET 0.056720 2.048850 -0.042750
				CHANNELS 3 Zrotation Yrotation Xrotation
				JOINT Neck
				{
					OFFSET 0.000000 0.000000 0.000000
					CHANNELS 3 Zrotation Yrotation Xrotation
					JOINT Neck1
					{
						OFFSET -0.054170 1.746240 0.172020
						CHANNELS 3 Zrotation Yrotation Xrotation
						JOINT Head
						{
							OFFSET 0.104070 1.761360 -0.123970
							CHANNELS 3 Zrotation Yrotation Xrotation
							End Site
							{
								OFFSET 0.000000 0.000000 0.000000
							}
						}
					}
				}
				JOINT LeftShoulder
				{
					OFFSET 0.000000 0.000000 0.000000
					CHANNELS 3 Zrotation Yrotation Xrotation
					JOINT LeftArm
					{
						OFFSET 3.362410 1.200890 -0.311210
						CHANNELS 3 Zrotation Yrotation Xrotation
						JOINT LeftForeArm
						{
							OFFSET 4.983000 -0.000000 -0.000000
							CHANNELS 3 Zrotation Yrotation Xrotation
							JOINT LeftHand
							{
								OFFSET 3.483560 -0.000000 -0.000000
								CHANNELS 3 Zrotation Yrotation Xrotation
								JOINT LeftFingerBase
								{
									OFFSET 0.000000 0.000000 0.000000
									CHANNELS 3 Zrotation Yrotation Xrotation
									JOINT LeftHandIndex1
									{
										OFFSET 0.715260 -0.000000 -0.000000
										CHANNELS 3 Zrotation Yrotation Xrotation
										End Site
										{
											OFFSET 0.000000 0.000000 0.000000
										}
									}
								}
								JOINT LThumb
								{
									OFFSET 0.000000 0.000000 0.000000
									CHANNELS 3 Zrotation Yrotation Xrotation
									End Site
									{
										OFFSET 0.000000 0.000000 0.000000
									}
								}
							}
						}
					}
				}
				JOINT RightShoulder
				{
					OFFSET 0.000000 0.000000 0.000000
					CHANNELS 3 Zrotation Yrotation Xrotation
					JOINT RightArm
					{
						OFFSET -3.136600 1.374050 -0.404650
						CHANNELS 3 Zrotation Yrotation Xrotation
						JOINT RightForeArm
						{
							OFFSET -5.241900 -0.000000 -0.000000
							CHANNELS 3 Zrotation Yrotation Xrotation
							JOINT RightHand
							{
								OFFSET -3.444170 -0.000000 -0.000000
								CHANNELS 3 Zrotation Yrotation Xrotation
								JOINT RightFingerBase
								{
									OFFSET 0.000000 0.000000 0.000000
									CHANNELS 3 Zrotation Yrotation Xrotation
									JOINT RightHandIndex1
									{
										OFFSET -0.622530 -0.000000 -0.000000
										CHANNELS 3 Zrotation Yrotation Xrotation
										End Site
										{
											OFFSET 0.000000 0.000000 0.000000
										}
									}
								}
								JOINT RThumb
								{
									OFFSET 0.000000 0.000000 0.000000
									CHANNELS 3 Zrotation Yrotation Xrotation
									End Site
									{
										OFFSET 0.000000 0.000000 0.000000
									}
								}
							}
						}
					}
				}
			}
		}
	}
}
MOTION
Frames: 10
Frame Time: 0.008333
6.428973 -3.007803 -3.493932 5.315777 8.798255 -3.968778 -5.273825 5.345483 0.220299 2.983258 1.734392 18.110588 -1.217693 -7.464463 -16.525183 1.407348 2.374396 -6.866382 0.949880 2.083885 1.731760 7.455309 1.322016 0.870740 6.022424 5.882007 3.402944 1.702746 0.887662 1.138677 0.888167 -3.139576 4.454530 2.405314 -1.510109 -14.091987 0.081913 2.071227 1.517960 0.157390 -0.463303 -2.766675 -2.754208 -2.326694 -4.957283 6.546515 3.084447 3.659860 1.581662 1.186092 15.175333 3.784582 0.613336 -3.825432 -1.558548 1.516453 0.334492 -9.015188 13.808112 43.364124 -2.566171 -9.659560 2.484397 1.292440 -0.062077 -11.435887 28.887609 16.209471 1.125938 0.688227 0.000000 0.000000 40.076920 24.721771 67.235092 5.605988 3.590945 -0.738798 -4.572274 -25.375210 -18.468708 21.075439 -35.595726 4.933067 0.166445 2.166883 28.407339 12.469830 -4.969177 -26.836956 2.425463 0.000000 0.000000 48.025879 16.294579 46.008087
6.448726 -3.010584 -3.575990 5.308571 8.921040 -3.944386 -5.309023 5.387368 0.259422 2.866223 1.753369 18.520214 -1.216672 -7.645046 -16.720881 1.410866 2.364144 -6.690379 0.939085 2.038980 1.642853 7.509773 1.326839 0.857226 6.046668 5.944529 3.456017 1.695377 0.861313 1.335116 0.902135 -3.082637 4.433254 2.404045 -1.488732 -14.065762 0.091551 2.078423 1.486019 0.159897 -0.462018 -2.767670 -2.751826 -2.332579 -4.989730 6.563305 3.104269 3.695921 1.595768 1.156433 15.300698 3.788193 0.609559 -3.831446 -1.576221 1.531521 0.333347 -9.175690 13.973866 43.700653 -2.581509 -9.852413 2.476254 1.303860 -0.068366 -11.571015 29.105595 16.200970 1.159478 0.695907 0.000000 0.000000 40.275524 25.004601 67.711655 5.661592 3.634973 -0.753681 -4.660656 -25.618118 -18.661695 21.219887 -36.068611 4.978507 0.168963 2.188128 28.639557 12.040914 -5.055121 -27.378685 2.430884 0.000000 0.000000 48.230137 16.326385 45.941563
6.477908 -3.014745 -3.637015 5.296873 9.030799 -3.910299 -5.341524 5.429564 0.299545 2.749758 1.775666 18.946543 -1.212878 -7.821512 -16.897907 1.417112 2.364946 -6.490484 0.930420 2.000238 1.567407 7.571212 1.334188 0.848362 6.085450 6.012182 3.517752 1.687807 0.835520 1.544311 0.917022 -3.035211 4.410059 2.402535 -1.468884 -14.036773 0.104129 2.086651 1.459194 0.163199 -0.459611 -2.767984 -2.748504 -2.337121 -5.018120 6.580189 3.126037 3.739317 1.612250 1.129695 15.431076 3.795851 0.607996 -3.832529 -1.588162 1.550833 0.332943 -9.306446 14.146250 44.048473 -2.590478 -10.032293 2.470837 1.315808 -0.073490 -11.694010 29.331093 16.203674 1.196784 0.703662 0.000000 0.000000 40.492077 25.288910 68.194023 5.719413 3.681407 -0.767447 -4.732732 -25.858864 -18.856882 21.364899 -36.539192 5.027231 0.172053 2.209232 28.871872 11.624464 -5.142589 -27.898746 2.436576 0.000000 0.000000 48.462650 16.371799 45.890633
6.503611 -3.024498 -3.713618 5.278132 9.129844 -3.881025 -5.380468 5.470772 0.339849 2.632143 1.798906 19.372192 -1.210249 -8.000786 -17.079027 1.422300 2.362679 -6.291874 0.920677 1.959585 1.485787 7.630854 1.340930 0.838564 6.121264 6.076999 3.575755 1.679466 0.808679 1.751637 0.930512 -2.992355 4.381013 2.400592 -1.451534 -14.012183 0.116861 2.094422 1.432502 0.166051 -0.457941 -2.769107 -2.745489 -2.341826 -5.047129 6.595683 3.147557 3.781908 1.628270 1.102033 15.560323 3.803273 0.606163 -3.834709 -1.601145 1.569155 0.332216 -9.440866 14.314645 44.389782 -2.599925 -10.212465 2.465275 1.327575 -0.079032 -11.821713 29.554779 16.203444 1.232101 0.710806 0.000000 0.000000 40.698299 25.560957 68.664650 5.776140 3.727269 -0.781507 -4.807172 -26.100616 -19.055208 21.508381 -37.008560 5.076277 0.175110 2.230339 29.104786 11.215921 -5.225487 -28.410946 2.442303 0.000000 0.000000 48.708103 16.423622 45.853241
6.545242 -3.014166 -3.682738 5.264991 9.224288 -3.838351 -5.416186 5.513744 0.382367 2.516872 1.828393 19.815969 -1.205117 -8.175264 -17.234480 1.424215 2.354855 -6.089567 0.909517 1.914652 1.381767 7.679507 1.343916 0.820949 6.132944 6.128591 3.618196 1.667814 0.778634 1.960503 0.943364 -2.945543 4.377690 2.398179 -1.438559 -13.994448 0.130793 2.102144 1.406868 0.167674 -0.457087 -2.771868 -2.743635 -2.346998 -5.077524 6.606651 3.166925 3.822789 1.641742 1.071356 15.685468 3.806454 0.601475 -3.841498 -1.618435 1.584828 0.330352 -9.593142 14.471315 44.682888 -2.619111 -10.402127 2.457140 1.338043 -0.087201 -11.979142 29.762251 16.174191 1.250921 0.714133 0.000000 0.000000 40.840675 25.739143 69.043655 5.818112 3.763593 -0.799050 -4.932903 -26.353334 -19.280262 21.636431 -37.488312 5.118976 0.177722 2.250992 29.335320 10.784836 -5.317062 -28.929955 2.447813 0.000000 0.000000 48.958443 16.470280 45.833584
6.570392 -3.005805 -3.642146 5.242272 9.320354 -3.808329 -5.465784 5.552187 0.422422 2.392501 1.854364 20.268230 -1.195549 -8.350438 -17.386524 1.424449 2.346452 -5.864955 0.900944 1.878225 1.289660 7.742867 1.352565 0.814527 6.180902 6.197020 3.692048 1.658083 0.750867 2.181092 0.958130 -2.902702 4.390819 2.395678 -1.428610 -13.975393 0.144388 2.107651 1.376374 0.166805 -0.457639 -2.779660 -2.744956 -2.353050 -5.109700 6.612422 3.183267 3.858882 1.652155 1.035467 15.802431 3.804289 0.592726 -3.851799 -1.639522 1.597787 0.327691 -9.756753 14.620076 44.956406 -2.649180 -10.594560 2.448536 1.348245 -0.094803 -12.134410 29.972034 16.154821 1.273958 0.718173 0.000000 0.000000 41.024990 25.945457 69.443016 5.863111 3.799993 -0.815779 -5.043362 -26.593897 -19.497555 21.762175 -37.966991 5.161849 0.180593 2.271586 29.565931 10.326954 -5.427026 -29.463966 2.452871 0.000000 0.000000 49.199318 16.505772 45.828602
6.610336 -2.991902 -3.556359 5.216803 9.403963 -3.768247 -5.511576 5.591952 0.464469 2.270394 1.883949 20.724751 -1.185127 -8.530753 -17.543859 1.420781 2.332608 -5.628555 0.891837 1.838264 1.175292 7.798512 1.358683 0.804700 6.213389 6.253761 3.754303 1.644588 0.718906 2.394611 0.970715 -2.881705 4.398969 2.392447 -1.422632 -13.936070 0.166429 2.117661 1.361030 0.168900 -0.453474 -2.780347 -2.742030 -2.355948 -5.128983 6.627420 3.207068 3.910003 1.668228 1.007397 15.929292 3.807847 0.587724 -3.853220 -1.650537 1.617621 0.326602 -9.874735 14.780596 45.268005 -2.668699 -10.765711 2.445014 1.359464 -0.099839 -12.260913 30.197563 16.158936 1.303998 0.723475 0.000000 0.000000 41.263794 26.203539 69.886086 5.917439 3.842029 -0.829314 -5.105813 -26.807915 -19.691393 21.904444 -38.425312 5.214309 0.184271 2.292294 29.799595 9.887741 -5.524213 -29.957951 2.459002 0.000000 0.000000 49.507412 16.568560 45.867863
6.649672 -2.978237 -3.465169 5.192321 9.489477 -3.726008 -5.557132 5.633021 0.508347 2.152746 1.918049 21.188725 -1.174289 -8.711178 -17.696865 1.416766 2.316328 -5.387774 0.882459 1.798236 1.059371 7.854139 1.365090 0.795181 6.245055 6.308196 3.818266 1.630785 0.686069 2.605002 0.982024 -2.864691 4.404717 2.388711 -1.420178 -13.901207 0.188369 2.127796 1.347973 0.170886 -0.449784 -2.780844 -2.739243 -2.358856 -5.147499 6.642567 3.231467 3.960826 1.684199 0.979300 16.055067 3.811276 0.582638 -3.854914 -1.661836 1.636982 0.325419 -9.993900 14.937815 45.575901 -2.688330 -10.936121 2.441783 1.370609 -0.105077 -12.389997 30.423025 16.164427 1.333326 0.728348 0.000000 0.000000 41.501301 26.463013 70.325905 5.972988 3.885490 -0.842266 -5.157382 -27.017611 -19.880362 22.052727 -38.873791 5.272099 0.188505 2.313639 30.039980 9.493540 -5.598041 -30.419922 2.465912 0.000000 0.000000 49.859066 16.650726 45.946751
6.681820 -2.975561 -3.415117 5.154288 9.553944 -3.705868 -5.627723 5.659916 0.538406 1.999807 1.928204 21.609537 -1.168033 -8.900329 -17.853359 1.408444 2.285614 -5.147608 0.871447 1.751827 0.913302 7.892845 1.366569 0.777089 6.246964 6.344759 3.863085 1.613750 0.649009 2.802691 0.990081 -2.863556 4.416460 2.381987 -1.427902 -13.885464 0.205949 2.136431 1.331339 0.170471 -0.448611 -2.785973 -2.740016 -2.363631 -5.174695 6.650987 3.252424 4.005394 1.696579 0.946971 16.172823 3.810447 0.576050 -3.858452 -1.674422 1.655619 0.323766 -10.116933 15.089718 45.863152 -2.711980 -11.106845 2.438277 1.381377 -0.111655 -12.531483 30.641552 16.160244 1.353912 0.730706 0.000000 0.000000 41.702190 26.668518 70.705246 6.017248 3.919895 -0.858080 -5.255610 -27.239296 -20.102327 22.169107 -39.348686 5.316514 0.191398 2.333157 30.265726 8.989930 -5.721447 -30.964300 2.470690 0.000000 0.000000 50.152222 16.685209 45.935791
6.706283 -2.975472 -3.371021 5.115882 9.620349 -3.680492 -5.696915 5.687375 0.567228 1.847231 1.940967 22.030853 -1.155227 -9.088796 -17.996237 1.400712 2.265152 -4.886361 0.863240 1.710987 0.777916 7.946690 1.374459 0.770584 6.284997 6.397244 3.940188 1.601709 0.619836 3.021677 1.002566 -2.852275 4.444456 2.378701 -1.429503 -13.834447 0.228793 2.148093 1.326631 0.172184 -0.443367 -2.784658 -2.737169 -2.366249 -5.192801 6.666299 3.279531 4.060483 1.714961 0.921494 16.298754 3.813087 0.571494 -3.858565 -1.682742 1.677948 0.322891 -10.220538 15.245641 46.163979 -2.736152 -11.270165 2.436808 1.392660 -0.117152 -12.654911 30.870817 16.179199 1.387308 0.734908 0.000000 0.000000 41.947300 26.929089 71.128227 6.066768 3.953747 -0.872340 -5.330223 -27.446972 -20.308228 22.294102 -39.812618 5.370192 0.195946 2.353246 30.497244 8.508165 -5.836696 -31.488375 2.476015 0.000000 0.000000 50.458805 16.719656 45.923183
